<svg xmlns="http://www.w3.org/2000/svg" viewBox="0 0 669.4 125.2"><defs><style>.cls-1{fill:#fceadc;}</style></defs><g id="Capa_2" data-name="Capa 2"><g id="texturas"><path class="cls-1" d="M1.1,1.8c9.2.8,14.8,10.5,23,14.9a43.5,43.5,0,0,0,10.7,3.6c9.4,2.4,18.8,5.5,27.1,10.5a132.9,132.9,0,0,1,12.9,9.4c11.6,9.3,23.3,18.6,33.5,29.5,2.8,3,5.5,6.1,8.8,8.3s9,4.1,13.7,5.3c21.2,5.3,43.3,9.5,61.3,21.8,8.2,5.7,15.5,13,24.8,16.7s20.9,3.6,31.5,3l20.3-1a2.5,2.5,0,0,0,2.2-.8c.6-.7.3-1.8-.1-2.6-2-4.3-6.4-6.7-10.5-9A408.8,408.8,0,0,1,193.5,65c-6.5-5.6-12.9-11.4-20.2-16s-13.4-7-20.4-10Q117.8,24,82.4,9.8C76.4,7.4,70.2,4.9,63.8,4c-10.7-1.5-21.5,1.2-32.2.1S10.4-1.6,0,.6"/><path class="cls-1" d="M256.7,67.7c25.2,6.9,43.6,29.6,68.6,37.1,10.1,3,20.7,3.4,31.1,4.6,32.4,3.7,64.5,15.6,96.8,10.9l-18.1-15.5C417.9,90.2,400.7,75.5,381,64.5c-11.1-6.3-23-11.3-33.3-18.8-8.1-5.9-15.4-13.3-24.8-17-7.5-2.9-15.8-3.2-23.8-4.4-16.3-2.4-31.6-9-47.4-13.4s-33.2-6.7-48.5-.5q38.6,24,77.8,46.9c-11.9,1.7-18,5.1-24.3,10.4"/><path class="cls-1" d="M380.6,17.3c19.2-10.2,42.3-10.5,63.7-6.8s42,11.2,63.2,16.1c30.8,7.2,63.7,9,91.2,24.7,24.2,13.8,43.4,37.9,70.7,43.6a319.4,319.4,0,0,1-123.6,3.4c-14.3-2.4-28.8-6-40.4-14.8a14,14,0,0,1-2-1.7C470,50.3,429,28,384.2,18.1Z"/></g></g></svg>